<?xml version="1.0" encoding="utf-8"?>
<svg xmlns="http://www.w3.org/2000/svg" id="a" viewBox="0 0 43.7 50">
  <defs>
    <style>.b{fill:#fff;}.c{fill:#2a3238;}.d{fill:#4da925;}</style>
  </defs>
  <path class="b" d="M40.7,10.2L24.9,.8c-1.9-1.1-4.2-1.1-6.1,0L3.1,10.2c-1.9,1.1-3.1,3.2-3.1,5.4v18.7c0,2.2,1.1,4.3,3.1,5.4l15.8,9.4c.9,.6,2,.8,3.1,.8s2.1-.3,3.1-.8l15.8-9.4c1.9-1.1,3.1-3.2,3.1-5.4V15.6c0-2.2-1.1-4.3-3.1-5.4Z"/>
  <path class="c" d="M40.7,10.2L24.9,.8c-.9-.6-2-.8-3.1-.8s-2.1,.3-3.1,.8L3.1,10.2c-1.9,1.1-3.1,3.2-3.1,5.4v18.7c0,2.2,1.1,4.3,3.1,5.4l15.8,9.4c.9,.6,2,.8,3.1,.8s2.1-.3,3.1-.8l15.8-9.4c1.9-1.1,3.1-3.2,3.1-5.4V15.6c0-2.2-1.1-4.3-3.1-5.4ZM19.4,48.1L3.6,38.8c-1.5-.9-2.5-2.6-2.5-4.4V15.6c0-1.8,1-3.6,2.5-4.4L19.4,1.8c.8-.5,1.6-.7,2.5-.7s1.7,.3,2.5,.7l15.8,9.4c1.3,.8,2.2,2.1,2.4,3.6-.5-1.1-1.7-1.4-3.1-.6l-14.9,9.2c-1.9,1.1-3.2,2.3-3.2,4.5v18.4c0,1.4,.6,2.2,1.4,2.5-.3,0-.6,0-.8,0-.8,0-1.7-.2-2.5-.7Z"/>
  <path class="d" d="M36.6,36.1l-3.9,2.3c0,0-.2,.1-.2,.3v1c0,.1,0,.2,.2,.1l4-2.4c0,0,.1-.2,.1-.3v-.9c0-.1,0-.2-.2-.1Z"/>
  <path class="b" d="M28.2,27.5c.1,0,.2,0,.3,.2v1.4c.6-.2,1.1-.3,1.5-.2,0,0,.1,.2,0,.3l-.3,1.2v.3q-.2,0-.2,0s0,0-.1,0c-.2,0-.7-.2-1.4,.3-.8,.4-1.1,1.1-1.1,1.6,0,.6,.3,.8,1.4,.8,1.4,0,2.1,.7,2.1,2.1,0,1.4-.8,3-1.9,3.9v1.4c0,.2,0,.3-.2,.4l-.8,.5c-.1,0-.2,0-.3-.2v-1.3c-.7,.3-1.4,.3-1.8,.2,0,0-.1-.2,0-.3l.3-1.2c0,0,0-.2,.1-.3t0,0s0,0,.1,0c.5,.2,1.1,0,1.7-.2,.8-.4,1.2-1.1,1.2-1.9s-.4-1-1.3-1-2.2-.2-2.2-1.9c0-1.4,.7-2.8,1.9-3.7v-1.4c0-.2,0-.3,.2-.4l.8-.5Z"/>
</svg>