<?xml version="1.0" encoding="utf-8"?>
<svg xmlns="http://www.w3.org/2000/svg" width="46" height="50" viewBox="0 0 46 50" fill="none">
<path fill-rule="evenodd" clip-rule="evenodd" d="M21.3095 0.345267C22.119 -0.107114 23.1071 -0.107114 23.9167 0.345267C27.9167 2.58336 39.9405 9.33336 43.9286 11.5715C44.7381 12.0238 45.2381 12.8572 45.2381 13.7738C45.2381 18.2619 45.2381 31.75 45.2381 36.2381C45.2381 37.1429 44.7381 37.9881 43.9286 38.4405C39.9405 40.6786 27.9167 47.4286 23.9167 49.6667C23.1071 50.1191 22.119 50.1191 21.3095 49.6667C17.3214 47.4167 5.29762 40.6667 1.30952 38.4286C0.5 37.9762 0 37.1429 0 36.2262C0 31.7381 0 18.25 0 13.7619C0 12.8572 0.5 12.0119 1.30952 11.5596C5.29762 9.33336 17.3214 2.58336 21.3095 0.345267Z" fill="#004482"/>
<path fill-rule="evenodd" clip-rule="evenodd" d="M0.357143 37.3808C0.0357143 36.9522 0 36.5593 0 36.0117C0 31.5593 0 18.1427 0 13.6903C0 12.7855 0.5 11.9522 1.29762 11.4998C5.28571 9.27362 17.2619 2.55934 21.2381 0.333148C22.0476 -0.119233 23.131 -0.107328 23.9405 0.345053C27.9167 2.57124 39.8571 9.226 43.8333 11.4522C44.1548 11.6308 44.4048 11.8451 44.619 12.1427L0.357143 37.3808Z" fill="#659AD2"/>
<path fill-rule="evenodd" clip-rule="evenodd" d="M22.6188 8.33337C31.8212 8.33337 39.2855 15.7977 39.2855 25C39.2855 34.2024 31.8212 41.6667 22.6188 41.6667C13.4164 41.6667 5.95215 34.2024 5.95215 25C5.95215 15.7977 13.4164 8.33337 22.6188 8.33337ZM22.6188 16.6667C27.2141 16.6667 30.9521 20.4048 30.9521 25C30.9521 29.5953 27.2141 33.3334 22.6188 33.3334C18.0236 33.3334 14.2855 29.5953 14.2855 25C14.2855 20.4048 18.0236 16.6667 22.6188 16.6667Z" fill="white"/>
<path fill-rule="evenodd" clip-rule="evenodd" d="M44.6308 12.1548C45.2499 12.7262 45.238 13.5953 45.238 14.2738C45.238 18.7976 45.2023 31.6429 45.2499 36.1548C45.2499 36.631 45.0951 37.1191 44.8689 37.5L22.1309 25L44.6308 12.1548Z" fill="#00599C"/>
</svg>