<?xml version="1.0" encoding="utf-8"?>
<svg xmlns="http://www.w3.org/2000/svg" width="45" height="50" viewBox="0 0 45 50" fill="none">
<path d="M43.8784 37.5108C44.227 36.9009 44.4449 36.2328 44.4449 35.6084V14.3914C44.4449 13.7815 44.227 13.0989 43.8784 12.489L22.2227 25.0072L43.8784 37.5108Z" fill="#00599C"/>
<path d="M24.1394 49.5499L42.5127 38.9487C43.0355 38.6437 43.5294 38.1209 43.878 37.511L22.2222 25.0073L0.566406 37.511C0.91499 38.1209 1.39429 38.6437 1.93169 38.9487L20.305 49.5499C21.3507 50.1598 23.0936 50.1598 24.1394 49.5499Z" fill="#004482"/>
<path d="M43.878 12.5036C43.5294 11.8936 43.0501 11.3708 42.5127 11.0659L24.1394 0.464652C23.0792 -0.145281 21.3508 -0.145281 20.2905 0.464652L1.91721 11.0659C0.87146 11.6758 0 13.1716 0 14.3915V35.6084C0 36.2184 0.217865 36.9009 0.566449 37.5108L22.2222 25.0072L43.878 12.5036Z" fill="#659AD2"/>
<path d="M22.222 39.8199C14.0594 39.8199 7.40723 33.1687 7.40723 25.0072C7.40723 16.8458 14.0594 10.1946 22.222 10.1946C27.4944 10.1946 32.4036 13.0264 35.047 17.6009L28.6418 21.3041C27.3201 19.0241 24.8655 17.6009 22.222 17.6009C18.1407 17.6009 14.8146 20.9265 14.8146 25.0072C14.8146 29.088 18.1407 32.4136 22.222 32.4136C24.8655 32.4136 27.3201 30.9904 28.6418 28.7104L35.047 32.4136C32.4036 36.9736 27.4944 39.8199 22.222 39.8199Z" fill="white"/>
<path d="M37.0369 24.1795H35.3957V22.5385H33.7399V24.1795H32.0986V25.8205H33.7399V27.476H35.3957V25.8205H37.0369V24.1795Z" fill="white"/>
<path d="M43.2098 24.1795H41.5685V22.5385H39.9127V24.1795H38.2715V25.8205H39.9127V27.476H41.5685V25.8205H43.2098V24.1795Z" fill="white"/>
</svg>