<?xml version="1.0" encoding="utf-8"?>
<svg xmlns="http://www.w3.org/2000/svg" width="45" height="50" viewBox="0 0 45 50" fill="none">
<path d="M44.5705 14.7034C44.5705 13.8678 44.3962 13.1193 44.03 12.4752C43.6638 11.8485 43.1407 11.3263 42.4257 10.9085C36.4969 7.49657 30.5507 4.08466 24.6219 0.672753C23.0176 -0.249854 21.4657 -0.215039 19.8789 0.724976C17.5248 2.11759 5.7021 8.87178 2.16226 10.9085C0.714942 11.744 0 13.0322 0 14.6859C0 21.562 0 28.4206 0 35.2966C0 36.1148 0.174376 36.8459 0.523128 37.4726C0.889318 38.1167 1.42988 38.6563 2.16226 39.0915C5.68466 41.1282 17.5074 47.8824 19.8789 49.275C21.4657 50.215 23.0176 50.2499 24.6219 49.3272C30.5507 45.9153 36.4969 42.5034 42.4257 39.0915C43.1581 38.6737 43.6987 38.1341 44.0648 37.4726C44.4136 36.8459 44.588 36.1148 44.588 35.2966C44.5705 35.2966 44.5705 21.562 44.5705 14.7034Z" fill="#A179DC"/>
<path d="M22.3553 24.9216L0.523438 37.4726C0.889627 38.1167 1.43019 38.6563 2.16257 39.0915C5.68497 41.1282 17.5077 47.8824 19.8792 49.275C21.466 50.215 23.018 50.2498 24.6222 49.3272C30.551 45.9153 36.4972 42.5034 42.426 39.0915C43.1584 38.6737 43.699 38.1341 44.0652 37.4726L22.3553 24.9216Z" fill="#280068"/>
<path d="M44.571 14.7034C44.571 13.8678 44.3966 13.1193 44.0304 12.4752L22.3555 24.9391L44.0479 37.4901C44.3966 36.8634 44.571 36.1323 44.571 35.3141C44.571 35.2967 44.571 21.562 44.571 14.7034Z" fill="#390091"/>
<path d="M35.207 20.239V22.5891H37.561V20.239H38.7294V22.5891H41.0834V23.7554H38.7294V26.1054H41.0834V27.2717H38.7294V29.6218H37.561V27.2717H35.207V29.6218H34.0386V27.2717H31.6846V26.1054H34.0386V23.7554H31.6846V22.5891H34.0386V20.239H35.207ZM37.561 23.7554H35.207V26.1054H37.561V23.7554Z" fill="white"/>
<path d="M22.4075 8.45398C28.5281 8.45398 33.8815 11.7788 36.7587 16.7226L36.7238 16.6704L29.5221 20.8134C28.1096 18.4112 25.494 16.7923 22.5122 16.7574H22.425C17.8738 16.7574 14.177 20.4479 14.177 24.9913C14.177 26.4709 14.578 27.881 15.2581 29.0821C16.688 31.554 19.3559 33.2251 22.425 33.2251C25.5114 33.2251 28.1968 31.5366 29.6093 29.0299L29.5744 29.0821L36.7761 33.2425C33.9338 38.1341 28.6676 41.459 22.5993 41.5112H22.4075C16.2521 41.5112 10.8987 38.1689 8.03894 33.2077C6.64393 30.788 5.8418 27.968 5.8418 24.9739C5.8418 15.8697 13.2528 8.45398 22.4075 8.45398Z" fill="white"/>
</svg>