<?xml version="1.0" encoding="utf-8"?>
<svg xmlns="http://www.w3.org/2000/svg" width="100" height="38" viewBox="0 0 100 38" fill="none">
<path d="M7.55379 11.233C7.39375 11.233 7.31367 11.153 7.39369 10.9929L8.43401 9.7126C8.51403 9.55256 8.75406 9.47253 8.99412 9.47253H26.3589C26.5189 9.47253 26.5989 9.63257 26.5189 9.79262L25.7187 11.073C25.6387 11.233 25.3986 11.393 25.2386 11.393L7.55379 11.233Z" fill="#00ACD7"/>
<path d="M0.191404 15.7142C0.0313607 15.7142 -0.0486219 15.6342 0.0313998 15.4742L1.07172 14.1938C1.15174 14.0338 1.39177 13.9537 1.63183 13.9537H23.8779C24.038 13.9537 24.1979 14.1138 24.1179 14.2738L23.7178 15.4742C23.6378 15.6342 23.4777 15.7942 23.3177 15.7942L0.191404 15.7142Z" fill="#00ACD7"/>
<path d="M11.9542 20.1954C11.7941 20.1954 11.7141 20.0353 11.7941 19.8753L12.5143 18.675C12.5943 18.5149 12.8344 18.3549 12.9944 18.3549H22.7571C22.9172 18.3549 23.0772 18.5149 23.0772 18.675L22.9971 19.8753C22.9971 20.0353 22.8372 20.1954 22.6771 20.1954H11.9542Z" fill="#00ACD7"/>
<path d="M62.5279 10.3527C59.487 11.1529 57.3265 11.7131 54.3657 12.5133C53.6455 12.6734 53.5654 12.7534 52.9253 12.0332C52.2051 11.233 51.6449 10.6728 50.6046 10.1927C47.5638 8.67226 44.603 9.1524 41.8022 10.9129C38.5213 13.0735 36.7609 16.1943 36.8409 20.1954C36.9209 24.1164 39.5616 27.3173 43.4027 27.8775C46.6835 28.2776 49.4843 27.1573 51.6449 24.6766C52.045 24.1165 52.4451 23.5563 52.9253 22.8361C51.1648 22.8361 49.0042 22.8361 43.5628 22.8361C42.5225 22.8361 42.2823 22.1959 42.6024 21.3957C43.2426 19.8753 44.443 17.3146 45.0832 16.1143C45.2432 15.7942 45.5633 15.3141 46.2835 15.3141C48.7642 15.3141 57.8866 15.3141 64.0483 15.3141C63.9683 16.5944 63.9683 17.9548 63.7282 19.2351C63.168 22.7561 61.8877 25.9569 59.7271 28.7577C56.2062 33.399 51.645 36.2798 45.8834 36.9999C41.0821 37.6401 36.6809 36.6799 32.7598 33.7991C29.1588 31.0783 27.0782 27.4774 26.5981 22.9961C25.9579 17.7147 27.5584 12.9134 30.7593 8.75228C34.2002 4.19104 38.7615 1.31026 44.363 0.349996C48.9242 -0.450222 53.3254 0.0299087 57.2465 2.75065C59.8071 4.4311 61.6476 6.83176 62.928 9.63252C63.3281 10.0326 63.088 10.2727 62.5279 10.3527Z" fill="#00ACD7"/>
<path d="M78.6921 37.3201C74.2909 37.24 70.2098 35.9597 66.8489 32.9989C63.9681 30.5182 62.2076 27.3173 61.5674 23.6363C60.6872 18.1148 62.2076 13.2335 65.4885 8.91235C69.0095 4.27109 73.3307 1.79041 79.0922 0.750126C84.0536 -0.130113 88.7748 0.350022 92.9359 3.2308C96.777 5.87152 99.1776 9.39248 99.8178 14.1138C100.618 20.6755 98.7775 26.037 94.2163 30.5982C91.0154 33.8791 87.0943 35.8797 82.5331 36.8399C81.2528 37.16 79.8924 37.16 78.6921 37.3201ZM90.2152 17.6347C90.1352 16.9945 90.1352 16.5144 90.0552 16.0343C89.1749 11.233 84.7737 8.51223 80.1325 9.55252C75.5712 10.5928 72.6905 13.4736 71.5702 18.0348C70.6899 21.7958 72.5304 25.7169 76.0514 27.2373C78.6921 28.4376 81.4128 28.2776 83.9735 26.9172C87.8946 24.9167 89.9751 21.8759 90.2152 17.6347Z" fill="#00ACD7"/>
</svg>