<?xml version="1.0" encoding="utf-8"?>
<svg xmlns="http://www.w3.org/2000/svg" width="38" height="51" viewBox="0 0 38 51" fill="none">
<path d="M12.7839 39.0068C12.7839 39.0068 10.8636 40.127 14.1442 40.4871C18.1049 40.9272 20.1453 40.8872 24.506 40.047C24.506 40.047 25.6662 40.7671 27.2665 41.4073C17.4648 45.568 5.10259 41.1672 12.7839 39.0068Z" fill="#0074BD"/>
<path d="M11.5839 33.5259C11.5839 33.5259 9.42355 35.1262 12.7041 35.4462C16.9449 35.8863 20.2654 35.9263 26.0665 34.8061C26.0665 34.8061 26.8666 35.6062 28.1068 36.0463C16.3048 39.5269 3.10242 36.3264 11.5839 33.5259Z" fill="#0074BD"/>
<path d="M21.6655 24.2443C24.0659 27.0048 21.0254 29.5252 21.0254 29.5252C21.0254 29.5252 27.1465 26.3647 24.346 22.404C21.7055 18.7233 19.7052 16.883 30.6271 10.5619C30.5871 10.5619 13.5041 14.8026 21.6655 24.2443Z" fill="#EA2D2E"/>
<path d="M34.6282 43.0476C34.6282 43.0476 36.0284 44.2078 33.0679 45.128C27.4269 46.8483 9.54374 47.3684 4.58287 45.208C2.78255 44.4478 6.14314 43.3677 7.18333 43.1276C8.26352 42.8876 8.90365 42.9276 8.90365 42.9276C6.9033 41.5273 -3.93863 45.6881 3.38266 46.8483C23.3462 50.0888 39.7891 45.368 34.6282 43.0476Z" fill="#0074BD"/>
<path d="M13.7043 27.8449C13.7043 27.8449 4.62269 30.0052 10.5037 30.8054C12.9842 31.1254 17.905 31.0454 22.5458 30.6854C26.3065 30.3653 30.0672 29.6852 30.0672 29.6852C30.0672 29.6852 28.7469 30.2453 27.7868 30.9254C18.5451 33.3658 0.741997 32.2056 5.8629 29.7252C10.1437 27.6048 13.7043 27.8449 13.7043 27.8449Z" fill="#0074BD"/>
<path d="M29.9871 36.9665C39.3888 32.0857 35.028 27.4049 31.9875 28.045C31.2274 28.205 30.9073 28.325 30.9073 28.325C30.9073 28.325 31.1874 27.8849 31.7075 27.7249C37.7085 25.6045 42.3093 33.926 29.7871 37.2466C29.8271 37.2066 29.9471 37.0866 29.9871 36.9665Z" fill="#0074BD"/>
<path d="M24.3463 0.320068C24.3463 0.320068 29.5472 5.52098 19.4254 13.5224C11.304 19.9235 17.5851 23.6042 19.4254 27.7649C14.7046 23.4841 11.224 19.7235 13.5444 16.2029C16.945 11.082 26.4267 8.60153 24.3463 0.320068Z" fill="#EA2D2E"/>
<path d="M14.6242 50.1688C23.6258 50.7289 37.4682 49.8487 37.7883 45.568C37.7883 45.568 37.1482 47.1683 30.347 48.4485C22.6656 49.8888 13.184 49.7287 7.54297 48.8086C7.54297 48.8486 8.70318 49.8087 14.6242 50.1688Z" fill="#0074BD"/>
</svg>