<?xml version="1.0" encoding="utf-8"?>
<svg xmlns="http://www.w3.org/2000/svg" width="50" height="51" viewBox="0 0 50 51" fill="none">
<path d="M50 0.320068H0V50.3201H50V0.320068Z" fill="#F0DB4F"/>
<path d="M45.9202 38.4001C45.5602 36.1201 44.0802 34.2001 39.6802 32.4001C38.1602 31.6801 36.4402 31.2001 35.9202 30.0401C35.7202 29.3601 35.7202 29.0001 35.8402 28.5601C36.1602 27.2401 37.7602 26.8401 39.0002 27.2001C39.8002 27.4801 40.5602 28.0801 41.0402 29.0801C43.2002 27.6801 43.2002 27.6801 44.6802 26.7201C44.1202 25.8801 43.8402 25.4801 43.4802 25.1201C42.2002 23.6801 40.4002 22.9201 37.6002 23.0001C37.1202 23.0801 36.6002 23.1201 36.1202 23.2001C34.7202 23.5601 33.3602 24.2801 32.5602 25.2801C30.2002 27.9601 30.8802 32.6801 33.7602 34.6001C36.6002 36.7201 40.7602 37.2001 41.2802 39.2001C41.8002 41.6401 39.4802 42.4401 37.2002 42.1601C35.5202 41.8001 34.5602 40.9601 33.5602 39.4001C31.6802 40.4801 31.6802 40.4801 29.7602 41.6001C30.2002 42.6001 30.6802 43.0401 31.4802 43.9201C35.1202 47.6001 44.1602 47.4001 45.8002 41.8401C45.8402 41.6401 46.2402 40.3601 45.9202 38.4001ZM27.2002 23.3201H22.5202C22.5202 27.3601 22.5202 31.3601 22.5202 35.4001C22.5202 37.9601 22.6402 40.3201 22.2402 41.0401C21.5602 42.4801 19.8002 42.2801 18.9602 42.0001C18.1202 41.6001 17.7202 41.0401 17.2402 40.2001C17.1202 39.9601 17.0002 39.8001 16.9602 39.7601C15.6802 40.5201 14.4402 41.3201 13.1602 42.0801C13.8002 43.3601 14.7202 44.5201 15.9202 45.2401C17.7202 46.3201 20.0802 46.6401 22.6002 46.0801C24.2402 45.6001 25.6402 44.6401 26.3602 43.1201C27.4402 41.1601 27.2002 38.8001 27.2002 36.1601C27.2002 31.8801 27.2002 27.6001 27.2002 23.3201Z" fill="#323330"/>
</svg>