<?xml version="1.0" encoding="utf-8"?>
<svg xmlns="http://www.w3.org/2000/svg" width="42" height="51" viewBox="0 0 42 51" fill="none">
<path d="M20.3288 0.5C18.6102 0.5 17.0115 0.659872 15.5726 0.89968C11.376 1.65907 10.6166 3.21783 10.6166 6.05556V9.85252H20.5686V11.1315H10.6166H6.89956C4.02186 11.1315 1.46391 12.8501 0.704516 16.1675C-0.214748 19.9644 -0.254716 22.3225 0.704516 26.2794C1.42394 29.237 3.1026 31.3153 5.9803 31.3153H9.41754V26.799C9.41754 23.5216 12.2553 20.6039 15.6126 20.6039H25.5646C28.3224 20.6039 30.5207 18.3257 30.5207 15.5679V6.09552C30.5207 3.41767 28.2425 1.3793 25.5646 0.939648C23.806 0.619904 22.0075 0.5 20.3288 0.5ZM14.9331 3.53757C15.9723 3.53757 16.8116 4.3769 16.8116 5.45604C16.8116 6.4952 15.9723 7.33453 14.9331 7.33453C13.894 7.33453 13.0546 6.4952 13.0546 5.45604C13.0546 4.41687 13.894 3.53757 14.9331 3.53757Z" fill="url(#paint0_linear)"/>
<path d="M31.7193 11.1315V15.5679C31.7193 19.0052 28.8017 21.8829 25.5243 21.8829H15.5723C12.8544 21.8829 10.6162 24.201 10.6162 26.9188V36.3913C10.6162 39.0691 12.9743 40.6678 15.5723 41.4272C18.7297 42.3465 21.7273 42.5064 25.5243 41.4272C28.0423 40.7078 30.4803 39.229 30.4803 36.3913V32.5943H20.5283V31.3153H30.4803H35.4363C38.314 31.3153 39.3932 29.3169 40.3924 26.2793C41.4316 23.1618 41.3916 20.1642 40.3924 16.1674C39.673 13.2897 38.314 11.1315 35.4363 11.1315H31.7193ZM26.1238 35.1123C27.163 35.1123 28.0023 35.9516 28.0023 36.9908C28.0023 38.0299 27.163 38.9092 26.1238 38.9092C25.0847 38.9092 24.2453 38.0699 24.2453 36.9908C24.2453 35.9516 25.0847 35.1123 26.1238 35.1123Z" fill="url(#paint1_linear)"/>
<path opacity="0.4438" d="M33.9584 47.9021C33.9584 49.341 28.0032 50.5 20.6091 50.5C13.255 50.5 7.25977 49.341 7.25977 47.9021C7.25977 46.4633 13.215 45.3042 20.6091 45.3042C28.0032 45.3042 33.9584 46.4633 33.9584 47.9021Z" fill="url(#paint2_radial)"/>
<defs>
<linearGradient id="paint0_linear" x1="-1.07178" y1="1.69346" x2="21.867" y2="21.2382" gradientUnits="userSpaceOnUse">
<stop stop-color="#5A9FD4"/>
<stop offset="1" stop-color="#306998"/>
</linearGradient>
<linearGradient id="paint1_linear" x1="30.4739" y1="33.4199" x2="22.2442" y2="21.8891" gradientUnits="userSpaceOnUse">
<stop stop-color="#FFD43B"/>
<stop offset="1" stop-color="#FFE873"/>
</linearGradient>
<radialGradient id="paint2_radial" cx="0" cy="0" r="1" gradientUnits="userSpaceOnUse" gradientTransform="translate(20.6473 47.8829) rotate(-90) scale(2.58433 11.3618)">
<stop stop-color="#B8B8B8" stop-opacity="0.498"/>
<stop offset="1" stop-color="#7F7F7F" stop-opacity="0"/>
</radialGradient>
</defs>
</svg>