<?xml version="1.0" encoding="utf-8"?>
<svg xmlns="http://www.w3.org/2000/svg" xmlns:xlink="http://www.w3.org/1999/xlink" version="1.1" id="Layer_1" x="0px" y="0px" viewBox="0 0 50 50" style="enable-background:new 0 0 50 50;">
<g>
	<path d="M50,25c0-0.2-0.1-0.5-0.3-0.6l-2.5-1.6l2.2-2c0.2-0.2,0.3-0.4,0.2-0.7c0-0.2-0.2-0.4-0.5-0.5l-2.8-1l1.7-2.4&#xA;		c0.1-0.2,0.2-0.5,0.1-0.7C48,15.2,47.8,15,47.6,15l-2.9-0.5l1.2-2.7c0.1-0.2,0.1-0.5-0.1-0.7c-0.1-0.2-0.4-0.3-0.6-0.3l-3,0.1&#xA;		L42.9,8c0.1-0.2,0-0.5-0.2-0.7c-0.2-0.2-0.4-0.2-0.7-0.2l-2.9,0.7l0.1-3c0-0.2-0.1-0.5-0.3-0.6c-0.2-0.1-0.5-0.2-0.7-0.1l-2.7,1.2&#xA;		L35,2.4c0-0.2-0.2-0.5-0.4-0.5c-0.2-0.1-0.5-0.1-0.7,0.1l-2.4,1.7l-1-2.8c-0.1-0.2-0.3-0.4-0.5-0.5c-0.2,0-0.5,0-0.7,0.2l-2,2.2&#xA;		l-1.6-2.5C25.5,0.1,25.2,0,25,0s-0.5,0.1-0.6,0.3l-1.6,2.5l-2-2.2c-0.2-0.2-0.4-0.3-0.7-0.2c-0.2,0-0.4,0.2-0.5,0.5l-1,2.8L16.1,2&#xA;		c-0.2-0.1-0.5-0.2-0.7-0.1C15.2,2,15,2.2,15,2.4l-0.5,2.9l-2.7-1.2c-0.2-0.1-0.5-0.1-0.7,0.1c-0.2,0.1-0.3,0.4-0.3,0.6l0.1,3L8,7.1&#xA;		c-0.2-0.1-0.5,0-0.7,0.2C7.1,7.5,7.1,7.8,7.1,8l0.7,2.9l-3-0.1c-0.3,0-0.5,0.1-0.6,0.3c-0.1,0.2-0.2,0.5-0.1,0.7l1.2,2.7L2.4,15&#xA;		c-0.2,0-0.5,0.2-0.5,0.4c-0.1,0.2-0.1,0.5,0.1,0.7l1.7,2.4l-2.8,1c-0.2,0.1-0.4,0.3-0.5,0.5c0,0.2,0,0.5,0.2,0.7l2.2,2l-2.5,1.6&#xA;		C0.1,24.5,0,24.8,0,25s0.1,0.5,0.3,0.6l2.5,1.6l-2.2,2c-0.2,0.2-0.3,0.4-0.2,0.7c0,0.2,0.2,0.4,0.5,0.5l2.8,1L2,33.9&#xA;		c-0.1,0.2-0.2,0.5-0.1,0.7S2.2,35,2.4,35l2.9,0.5l-1.2,2.7c-0.1,0.2-0.1,0.5,0.1,0.7c0.1,0.2,0.4,0.3,0.6,0.3l3-0.1L7.1,42&#xA;		c-0.1,0.2,0,0.5,0.2,0.7c0.2,0.2,0.4,0.2,0.7,0.2l2.9-0.7l-0.1,3c0,0.2,0.1,0.5,0.3,0.6c0.2,0.1,0.5,0.2,0.7,0.1l2.7-1.2l0.5,2.9&#xA;		c0,0.2,0.2,0.5,0.4,0.5c0.2,0.1,0.5,0.1,0.7-0.1l2.4-1.7l1,2.8c0.1,0.2,0.3,0.4,0.5,0.5c0.2,0,0.5,0,0.7-0.2l2-2.2l1.6,2.5&#xA;		c0.1,0.2,0.4,0.3,0.6,0.3s0.5-0.1,0.6-0.3l1.6-2.5l2,2.2c0.2,0.2,0.4,0.3,0.7,0.2c0.2,0,0.4-0.2,0.5-0.5l1-2.8l2.4,1.7&#xA;		c0.2,0.1,0.5,0.2,0.7,0.1c0.2-0.1,0.4-0.3,0.4-0.5l0.5-2.9l2.7,1.2c0.2,0.1,0.5,0.1,0.7-0.1c0.2-0.1,0.3-0.4,0.3-0.6l-0.1-3&#xA;		l2.9,0.7c0.2,0.1,0.5,0,0.7-0.2c0.2-0.2,0.2-0.4,0.2-0.7l-0.7-2.9l3,0.1c0.3,0,0.5-0.1,0.6-0.3c0.1-0.2,0.2-0.5,0.1-0.7l-1.2-2.7&#xA;		l2.9-0.5c0.2,0,0.5-0.2,0.5-0.4s0.1-0.5-0.1-0.7l-1.7-2.4l2.8-1c0.2-0.1,0.4-0.3,0.5-0.5c0-0.2,0-0.5-0.2-0.7l-2.2-2l2.5-1.6&#xA;		C49.9,25.5,50,25.2,50,25z M25,47.1C12.8,47.1,2.9,37.2,2.9,25S12.8,2.9,25,2.9c12.2,0,22.1,9.9,22.1,22.1S37.2,47.1,25,47.1z"/>
	<path d="M25,2.4C12.5,2.4,2.4,12.5,2.4,25S12.5,47.6,25,47.6S47.6,37.5,47.6,25S37.5,2.4,25,2.4z M25,4.4c0.8,0,1.4,0.7,1.4,1.5&#xA;		c0,0.8-0.7,1.5-1.5,1.5s-1.5-0.7-1.5-1.5C23.4,5.1,24.1,4.4,25,4.4C24.9,4.4,25,4.4,25,4.4z M28.4,6.8c5.3,1,9.9,4.3,12.5,8.9&#xA;		l-1.8,4c-0.3,0.7,0,1.5,0.7,1.8l3.4,1.5c0.1,1.1,0.1,2.1,0,3.2h-1.9c-0.2,0-0.3,0.1-0.3,0.3v0.9c0,2-1.1,2.5-2.1,2.6&#xA;		c-1,0.1-2-0.4-2.1-1c-0.6-3.2-1.5-3.8-3-5c1.8-1.2,3.8-2.9,3.8-5.2c0-2.5-1.7-4.1-2.9-4.8c-1.6-1.1-3.4-1.3-3.9-1.3H11.4&#xA;		c2.7-3,6.3-5,10.2-5.8l2.3,2.4c0.5,0.5,1.4,0.6,1.9,0L28.4,6.8z M7.2,17.9c0.8,0,1.4,0.7,1.4,1.5c0,0.8-0.7,1.5-1.5,1.5&#xA;		c-0.8,0-1.5-0.7-1.5-1.5C5.7,18.5,6.4,17.9,7.2,17.9C7.2,17.9,7.2,17.9,7.2,17.9z M42.7,17.9c0.8,0,1.4,0.7,1.4,1.5&#xA;		c0,0.8-0.7,1.5-1.5,1.5c-0.8,0-1.5-0.7-1.5-1.5C41.2,18.6,41.8,17.9,42.7,17.9C42.7,17.9,42.7,17.9,42.7,17.9z M10,18.2h2.6v11.7&#xA;		H7.4c-0.6-2.3-0.8-4.6-0.6-7l3.2-1.4c0.7-0.3,1-1.1,0.7-1.8L10,18.2z M20.9,18.3H27c0.3,0,2.3,0.4,2.3,1.8c0,1.2-1.5,1.6-2.7,1.6&#xA;		h-5.7L20.9,18.3z M20.9,26.7h4.7c0.4,0,2.3,0.1,2.9,2.5c0.2,0.7,0.6,3.1,0.9,3.9c0.3,0.9,1.4,2.6,2.6,2.6h7.7&#xA;		c-0.5,0.7-1.1,1.3-1.7,2L34.9,37c-0.7-0.2-1.5,0.3-1.6,1l-0.7,3.5c-4.9,2.2-10.4,2.2-15.3-0.1L16.5,38c-0.2-0.7-0.9-1.2-1.6-1&#xA;		l-3.1,0.7c-0.6-0.6-1.1-1.2-1.6-1.9h15c0.2,0,0.3,0,0.3-0.2v-5.3c0-0.2-0.1-0.2-0.3-0.2h-4.4L20.9,26.7z M13.9,38.8&#xA;		c0.8,0,1.4,0.7,1.4,1.5c0,0.8-0.7,1.5-1.5,1.5s-1.5-0.7-1.5-1.5C12.4,39.5,13.1,38.8,13.9,38.8C13.9,38.8,13.9,38.8,13.9,38.8z&#xA;		 M36,38.9c0.8,0,1.4,0.7,1.4,1.5c0,0.8-0.7,1.5-1.5,1.5c-0.8,0-1.5-0.7-1.5-1.5C34.4,39.5,35.1,38.9,36,38.9&#xA;		C36,38.9,36,38.9,36,38.9z"/>
</g>
</svg>