<?xml version="1.0" encoding="utf-8"?>
<svg xmlns="http://www.w3.org/2000/svg" xmlns:xlink="http://www.w3.org/1999/xlink" version="1.1" id="Layer_1" x="0px" y="0px" viewBox="0 0 50 50" style="enable-background:new 0 0 50 50;">
<style type="text/css">
	.st0{fill:#F05138;}
	.st1{fill:#FFFFFF;}
</style>
<g>
	<path class="st0" d="M50,13.8c0-0.5,0-1,0-1.5c0-1.1-0.1-2.2-0.3-3.3s-0.5-2.1-1-3.1c-0.5-1-1.1-1.9-1.9-2.6&#xA;		c-0.8-0.8-1.7-1.4-2.6-1.9c-1-0.5-2-0.8-3.1-1C39.9,0.1,38.8,0,37.7,0c-0.5,0-1,0-1.5,0c-0.6,0-1.2,0-1.8,0H21.1h-5.5&#xA;		c-0.6,0-1.2,0-1.8,0c-0.5,0-1,0-1.5,0c-0.3,0-0.6,0-0.8,0c-0.8,0-1.7,0.1-2.5,0.2C8.3,0.4,7.5,0.7,6.7,0.9C6.5,1,6.2,1.2,5.9,1.3&#xA;		C5.2,1.7,4.5,2.1,3.9,2.6C3.7,2.8,3.4,3,3.3,3.2C2.5,4,1.8,4.9,1.3,5.9c-0.5,1-0.8,2-1,3.1C0.1,10.1,0,11.1,0,12.3c0,0.5,0,1,0,1.5&#xA;		c0,0.6,0,1.2,0,1.8v8.2v10.6c0,0.6,0,1.2,0,1.8c0,0.5,0,1,0,1.5c0,1.1,0.1,2.2,0.3,3.3c0.2,1.1,0.5,2.1,1,3.1&#xA;		c0.5,1,1.1,1.9,1.9,2.6c0.8,0.8,1.7,1.4,2.6,1.9c1,0.5,2,0.8,3.1,1c1.1,0.2,2.2,0.3,3.3,0.3c0.5,0,1,0,1.5,0c0.6,0,1.2,0,1.8,0&#xA;		h18.7c0.6,0,1.2,0,1.8,0c0.5,0,1,0,1.5,0c1.1,0,2.2-0.1,3.3-0.3s2.1-0.5,3.1-1s1.9-1.1,2.6-1.9c0.8-0.8,1.4-1.7,1.9-2.6&#xA;		c0.5-1,0.8-2,1-3.1c0.2-1.1,0.3-2.2,0.3-3.3c0-0.5,0-1,0-1.5c0-0.6,0-1.2,0-1.8V15.6C50,15,50,14.4,50,13.8z"/>
	<path class="st1" d="M39.6,30.9c0-0.2,0.1-0.4,0.1-0.6c2.1-8.3-3-18.1-11.6-23.2c3.8,5.1,5.4,11.3,4,16.7c-0.1,0.5-0.3,0.9-0.5,1.4&#xA;		c-0.2-0.1-0.4-0.3-0.8-0.4c0,0-8.5-5.3-17.8-14.6c-0.2-0.2,5,7.4,10.8,13.6c-2.8-1.6-10.5-7.2-15.4-11.6c0.6,1,1.3,2,2.1,2.9&#xA;		c4.1,5.2,9.4,11.6,15.8,16.5c-4.5,2.7-10.8,3-17.1,0c-1.6-0.7-3-1.6-4.4-2.6c2.6,4.2,6.8,7.9,11.8,10.1c5.9,2.5,11.9,2.4,16.3,0&#xA;		l0,0c0,0,0,0,0,0c0.2-0.1,0.4-0.2,0.6-0.3c2.1-1.1,6.3-2.2,8.5,2.2C42.7,41.8,43.9,36.2,39.6,30.9L39.6,30.9z"/>
</g>
</svg>