<?xml version="1.0" encoding="utf-8"?>
<svg xmlns="http://www.w3.org/2000/svg" xmlns:xlink="http://www.w3.org/1999/xlink" version="1.1" id="Layer_1" x="0px" y="0px" viewBox="0 0 50 50" style="enable-background:new 0 0 50 50;">
<style type="text/css">
	.st0{fill:#3178C6;}
	.st1{fill-rule:evenodd;clip-rule:evenodd;fill:#FFFFFF;}
</style>
<path class="st0" d="M2.3,0h45.3C49,0,50,1,50,2.3v45.3c0,1.3-1,2.3-2.3,2.3H2.3C1,50,0,49,0,47.7V2.3C0,1,1,0,2.3,0z"/>
<path class="st1" d="M29,38.9v5.5c0.9,0.5,1.9,0.8,3.1,1c1.2,0.2,2.5,0.3,3.8,0.3c1.3,0,2.6-0.1,3.7-0.4c1.2-0.3,2.2-0.7,3.1-1.2&#xA;	c0.9-0.6,1.6-1.3,2.1-2.3c0.5-0.9,0.8-2.1,0.8-3.4c0-1-0.1-1.9-0.4-2.6c-0.3-0.7-0.7-1.4-1.3-2c-0.6-0.6-1.2-1.1-2-1.6&#xA;	c-0.8-0.5-1.7-0.9-2.6-1.3c-0.7-0.3-1.4-0.6-1.9-0.9c-0.6-0.3-1.1-0.6-1.5-0.9c-0.4-0.3-0.7-0.6-0.9-0.9c-0.2-0.3-0.3-0.7-0.3-1.1&#xA;	c0-0.4,0.1-0.7,0.3-1c0.2-0.3,0.5-0.6,0.8-0.8c0.4-0.2,0.8-0.4,1.3-0.5c0.5-0.1,1.1-0.2,1.7-0.2c0.5,0,0.9,0,1.4,0.1&#xA;	c0.5,0.1,1,0.2,1.5,0.3c0.5,0.1,1,0.3,1.5,0.5c0.5,0.2,0.9,0.5,1.3,0.8v-5.1c-0.8-0.3-1.7-0.6-2.7-0.7c-1-0.2-2.1-0.2-3.4-0.2&#xA;	c-1.3,0-2.5,0.1-3.7,0.4c-1.2,0.3-2.2,0.7-3.1,1.3c-0.9,0.6-1.6,1.3-2.1,2.3c-0.5,0.9-0.8,2-0.8,3.3c0,1.6,0.5,3,1.4,4.2&#xA;	c0.9,1.2,2.4,2.1,4.3,2.9c0.8,0.3,1.5,0.6,2.1,0.9c0.6,0.3,1.2,0.6,1.7,0.9c0.5,0.3,0.8,0.7,1.1,1c0.3,0.4,0.4,0.8,0.4,1.3&#xA;	c0,0.4-0.1,0.7-0.3,1c-0.2,0.3-0.4,0.6-0.8,0.8c-0.3,0.2-0.8,0.4-1.3,0.5c-0.5,0.1-1.1,0.2-1.8,0.2c-1.2,0-2.4-0.2-3.5-0.6&#xA;	C31.1,40.3,30,39.7,29,38.9z M19.8,25.2H27v-4.5H7v4.5h7.1v20.1h5.7L19.8,25.2z"/>
</svg>